<?xml version="1.0" encoding="iso-8859-1"?>
<!-- Generator: Adobe Illustrator 19.0.0, SVG Export Plug-In . SVG Version: 6.00 Build 0)  -->
<svg xmlns="http://www.w3.org/2000/svg" xmlns:xlink="http://www.w3.org/1999/xlink" version="1.1" id="Capa_1" x="0px" y="0px" viewBox="0 0 470 470" style="enable-background:new 0 0 470 470;" xml:space="preserve" width="512px" height="512px">
<g>
	<path d="M422.93,410.667c0-16.174-13.159-29.333-29.333-29.333h-72.108c-4.143,0-7.5,3.358-7.5,7.5s3.357,7.5,7.5,7.5h72.108   c7.903,0,14.333,6.43,14.333,14.333c0,1.403-0.205,2.779-0.596,4.094c-4.101-2.183-8.776-3.426-13.737-3.426h-97.664   c2.433-4.33,3.735-9.23,3.735-14.333c0-7.835-3.051-15.201-8.591-20.741l-82.656-82.656   c-12.008-12.008-34.717-21.415-51.699-21.414H54.569c-4.143,0-7.5,3.358-7.5,7.5s3.357,7.5,7.5,7.5h102.152   c13.048,0,31.866,7.794,41.092,17.021l82.656,82.656c2.708,2.707,4.198,6.307,4.198,10.135c0,3.829-1.49,7.428-4.198,10.135   c-5.589,5.589-14.682,5.587-20.269,0l-67.176-67.176c-2.929-2.929-7.677-2.93-10.607,0c-2.929,2.929-2.929,7.678,0,10.606   l67.176,67.176c5.59,5.589,12.889,8.439,20.23,8.565c0.17,0.011,0.339,0.026,0.512,0.026h123.262   c7.903,0,14.333,6.43,14.333,14.333S401.5,455,393.604,455l-137.644-0.122c-3.67-0.003-9.896-1.625-13.168-3.419L102.89,365.066   c-0.087-0.054-0.175-0.106-0.265-0.156c-5.477-3.08-14.347-5.402-20.632-5.402H54.569c-4.143,0-7.5,3.358-7.5,7.5   s3.357,7.5,7.5,7.5h27.425c3.669,0,9.891,1.617,13.161,3.411l139.902,86.394c0.087,0.054,0.176,0.106,0.265,0.156   c5.477,3.079,14.344,5.405,20.625,5.41L393.597,470c16.174,0,29.333-13.159,29.333-29.333c0-5.474-1.511-10.6-4.133-14.99   C421.485,421.176,422.93,416.017,422.93,410.667z" fill="#FFFFFF"/>
	<path d="M73.402,98.009c1.099,0,2.214-0.242,3.27-0.754l4.741-2.301v154.738c0,4.142,3.357,7.5,7.5,7.5s7.5-3.358,7.5-7.5V87.672   l148-71.835l148.001,71.836v263.662h-77.767V159.634c0-4.142-3.357-7.5-7.5-7.5H181.679c-4.143,0-7.5,3.358-7.5,7.5v93.955   c0,4.142,3.357,7.5,7.5,7.5s7.5-3.358,7.5-7.5v-86.455h110.468v191.701c0,4.142,3.357,7.5,7.5,7.5h92.767   c4.143,0,7.5-3.358,7.5-7.5V94.953l4.741,2.301c3.729,1.81,8.214,0.253,10.022-3.472c1.809-3.727,0.254-8.213-3.473-10.022   l-89.041-43.218V7.5c0-4.142-3.357-7.5-7.5-7.5s-7.5,3.358-7.5,7.5v25.761L247.688,0.753c-2.068-1.004-4.482-1.004-6.551,0   L70.12,83.76c-3.726,1.809-5.28,6.295-3.472,10.022C67.946,96.454,70.618,98.009,73.402,98.009z" fill="#FFFFFF"/>
</g>
<g>
</g>
<g>
</g>
<g>
</g>
<g>
</g>
<g>
</g>
<g>
</g>
<g>
</g>
<g>
</g>
<g>
</g>
<g>
</g>
<g>
</g>
<g>
</g>
<g>
</g>
<g>
</g>
<g>
</g>
</svg>
